# xmcd
#
# Track frame offsets: 
#        150
#        17523
#        38905
#        60622
#        77046
#        99090
#        113765
#        129841
#        147086
#        167913
#        183400
#        202773
#        217243
#        237991
#        255089
#        271370
#        290009
#
# Disc length: 4087 seconds
#
# Revision: 0
# Processed by: cddbd v1.5.2PL0 Copyright (c) Steve Scherf et al.
# Submitted via: ExactAudioCopy v0.99pb5
#
DISCID=e50ff511
DTITLE=Various Artist - Romantyczne Ballady - CD2 Zawsze tam gdzie Ty
DYEAR=2009
DGENRE=Ballad
TTITLE0=Ballada o Marii Magdalenie - Happy End
TTITLE1=Za ostatni grosz - Budka Suflera
TTITLE2=Bossa nova do poduszki - Maryla Rodowicz
TTITLE3=Tak bardzo sie staralem - Seweryn Krajewski
TTITLE4=Kocham Cie jak Irlandie - Kobranocka
TTITLE5=Kochaj mnie - Zbigniew Wodecki
TTITLE6=Nie opuszczaj mnie kochany - Patrycja Kosiarkiewicz
TTITLE7=Wierniejsza od marzenia Skaldowie
TTITLE8=Kocham Cie - Chlopcy z Placu Broni
TTITLE9=Jej portrte - Boguslaw Mec
TTITLE10=Zawsze tam gdzie Ty - Lady Pank
TTITLE11=Moja mila, moja cicha - Jerzy Polomski
TTITLE12=Poczekalnia PKP - Elzbieta Mielczarek
TTITLE13=Zielono mi - Andrzej Dabrowski
TTITLE14=Niech tancza nasze serca - Irena Jarocka
TTITLE15=Requiem dla samej siebie - Dwa plus Jeden
TTITLE16=Dom w dolinie mgiel - Marek Bilinski
EXTD=
EXTT0=
EXTT1=
EXTT2=
EXTT3=
EXTT4=
EXTT5=
EXTT6=
EXTT7=
EXTT8=
EXTT9=
EXTT10=
EXTT11=
EXTT12=
EXTT13=
EXTT14=
EXTT15=
EXTT16=
PLAYORDER=
